<svg id="logo" xmlns="http://www.w3.org/2000/svg" viewBox="0 0 882.97 164.19"><g id="philip"><path d="M2.81,37.58H16.74V52.49h1.71c3.18-4.89,8.8-16.13,27.12-16.13,23.7,0,40.07,18.82,40.07,48.38,0,29.81-16.37,48.62-39.83,48.62-18.08,0-24.18-11.24-27.36-16.37H17.23v49.6H2.81Zm41.05,82.83c18.08,0,27.36-15.88,27.36-35.91,0-19.79-9-35.19-27.36-35.19C26.27,49.31,17,63.48,17,84.5,17,105.75,26.51,120.41,43.86,120.41Z" transform="translate(-2.81 -2.4)"/><path d="M122,131.41H107.63V6.31H122V52.24h1.22c4.4-9.71,12.83-15.88,27.61-15.88,19.18,0,32,11.3,32,35.43v59.62H168.46V72.77c0-14.91-8.18-23.46-21.74-23.46C132.49,49.31,122,58.6,122,75Z" transform="translate(-2.81 -2.4)"/><path d="M206.33,12.18a10.27,10.27,0,0,1,20.52,0,10.27,10.27,0,0,1-20.52,0Zm2.93,25.4h14.42v93.83H209.26Z" transform="translate(-2.81 -2.4)"/><path d="M264.48,131.41H250.06V6.31h14.42Z" transform="translate(-2.81 -2.4)"/><path d="M287.93,12.18a10.28,10.28,0,0,1,20.53,0,10.28,10.28,0,0,1-20.53,0Zm2.93,25.4h14.42v93.83H290.86Z" transform="translate(-2.81 -2.4)"/><path d="M346.08,132.41V117h1.22a54.65,54.65,0,0,0,4.15,6.12l5-8.61c-6.92-6.19-10.58-16.82-10.58-30,0-21,9.28-35.19,26.87-35.19,7.31,0,13.14,2.46,17.51,6.66l7.07-12.26a37.32,37.32,0,0,0-22.87-7.35c-18.32,0-23.94,11.24-27.12,16.13h-1.71V37.58H331.67v119.8Z" transform="translate(-2.81 -2.4)"/></g><g id="oliver"><path d="M523.3,43.51l-6.8,11.77c8,6.51,11.67,18,11.61,30.29-.1,18.81-9,35.38-28.28,35.28-7.31,0-13.09-2.45-17.46-6.45l-6.85,11.87a41.09,41.09,0,0,0,24.25,7.53c25.4.13,42.6-19.09,42.75-48.16C542.62,66.49,535.4,51.59,523.3,43.51Z" transform="translate(-2.81 -2.4)" style="fill:#9100f7"/><path d="M578.69,132.24l-14.42-.07L564.9,7.08l14.42.07Z" transform="translate(-2.81 -2.4)" style="fill:#9100f7"/><path d="M602.74,13.13a10.28,10.28,0,0,1,20.53.11,10.28,10.28,0,0,1-20.53-.11Zm2.81,25.43,14.41.07-.47,93.82-14.42-.07Z" transform="translate(-2.81 -2.4)" style="fill:#9100f7"/><path d="M687.9,132.79l-14.66-.07L639,38.73l15.63.08,25.52,74.89h1l26.28-74.63,15.63.08Z" transform="translate(-2.81 -2.4)" style="fill:#9100f7"/><path d="M734.06,86.85c.15-28.83,17.11-48.78,42.51-48.65,19.55.1,40.26,12.17,40.08,47.11l0,6.11-68.1-.34c.57,20.09,12.18,31.09,29.1,31.17,11.3.06,19.81-4.78,23.53-14.54l13.9,4c-4.47,14.15-18.44,23.61-37.5,23.51C750.43,135.06,733.92,115.68,734.06,86.85Zm68-8c.08-15.88-9.87-27.65-25.51-27.73C760,51.06,749.63,64,748.58,78.62Z" transform="translate(-2.81 -2.4)" style="fill:#9100f7"/><path d="M838.87,39.73l13.92.07L852.72,54h1c3.47-9.27,13.27-15.57,24.51-15.51,2.14,0,5.92.15,7.57.28l-.07,14.66a44.11,44.11,0,0,0-8.79-1c-13.68-.07-23.75,9.16-23.81,21.87l-.3,59.37-14.42-.08Z" transform="translate(-2.81 -2.4)" style="fill:#9100f7"/></g></svg>